:version 1.10
:name ASF
:units
  mass 1
  length 1
  angle deg
:documentation
  ASF file generated by Kaydara
:root
  axis xyz
  order  tx ty tz rx ry rz
  position 0 0 0
  orientation 0 0 0
:bonedata
  begin
    id 1
    name RightUpLegDummy
    direction -1 2.30186e-007 8.31532e-007
    length 4.46685
    axis 0 0 0 xyz
  end
  begin
    id 2
    name RightUpLeg
    direction -2.30187e-007 -1 1.24343e-010
    length 16.4045
    axis -3.49089 -0.000906625 0.000286804 xyz
    dof rx ry rz
  end
  begin
    id 3
    name RightLeg
    direction -2.30181e-007 -1 -4.17157e-009
    length 17.5097
    axis 3.68512 0.0193738 -0.131023 xyz
    dof rx ry rz
  end
  begin
    id 4
    name RightFoot
    direction 8.31421e-007 -4.51202e-011 1
    length 6.49508
    axis 4.81691e-005 -0.120479 -0.188788 xyz
    dof rx ry rz
  end
  begin
    id 5
    name RightToes
    direction 0.00124746 -0.014064 0.9999
    length 3.85082
    axis 0.000481921 0.542163 -0.142578 xyz
    dof rx ry rz
  end
  begin
    id 6
    name SpineDummy
    direction 0.0717043 0.9409 -0.331007
    length 10.0032
    axis 0 0 0 xyz
  end
  begin
    id 7
    name Spine
    direction 2.30186e-007 1 4.58806e-011
    length 9.84055
    axis -0.001389 0.000121418 2.40972e-006 xyz
    dof rx ry rz
  end
  begin
    id 8
    name Spine1
    direction 0 0 0
    length 0
    axis -0.001389 0.000121451 1.30017e-006 xyz
    dof rx ry rz
  end
  begin
    id 9
    name HEadDummy
    direction -0.00347485 0.950688 -0.310128
    length 8.00997
    axis -0.001389 0.000121451 1.30017e-006 xyz
  end
  begin
    id 10
    name HEad
    direction -0.0222688 0.980941 0.193023
    length 5.12695
    axis -0.001389 0.000121451 1.30017e-006 xyz
    dof rx ry rz
  end
  begin
    id 11
    name LeftShoulder1Dummy
    direction 0.988871 0.146793 -0.0242004
    length 3.5792
    axis -0.001389 0.000121451 1.30017e-006 xyz
  end
  begin
    id 12
    name LeftShoulder1
    direction 0.993832 0.108932 0.020779
    length 4.16823
    axis -0.001389 0.000121451 1.30017e-006 xyz
    dof rx ry rz
  end
  begin
    id 13
    name LeftArm
    direction 1 3.44807e-006 -8.31404e-007
    length 9.91437
    axis -23.1894 0.134784 0.967509 xyz
    dof rx ry rz
  end
  begin
    id 14
    name LeftForeArm
    direction 1 3.44842e-006 -8.31581e-007
    length 9.08575
    axis -9.91835 -0.06569 -0.177793 xyz
    dof rx ry rz
  end
  begin
    id 15
    name LeftHand
    direction 0.992938 -0.0411636 0.11126
    length 5.32135
    axis -0.00960232 -0.00340091 0.185173 xyz
    dof rx ry rz
  end
  begin
    id 16
    name RightShoulderDummy
    direction -0.988871 0.146793 -0.0241962
    length 3.5792
    axis -0.001389 0.000121451 1.30017e-006 xyz
  end
  begin
    id 17
    name RightShoulder
    direction -0.993832 0.108933 0.0207785
    length 4.16823
    axis 0.215806 0.000203643 -0.0068026 xyz
    dof rx ry rz
  end
  begin
    id 18
    name RightArm
    direction -1 3.90912e-006 8.31284e-007
    length 9.91437
    axis -23.2009 -0.134239 -0.964101 xyz
    dof rx ry rz
  end
  begin
    id 19
    name RightForeArm
    direction -1 3.90882e-006 8.31502e-007
    length 9.08575
    axis -9.92322 0.0658061 0.178867 xyz
    dof rx ry rz
  end
  begin
    id 20
    name RightHand
    direction -0.992843 -0.0414603 0.112003
    length 5.28593
    axis -0.00960638 0.00330671 -0.185228 xyz
    dof rx ry rz
  end
  begin
    id 21
    name LeftUpLegDummy
    direction 1 -2.30186e-007 -8.31532e-007
    length 4.46685
    axis 0 0 0 xyz
  end
  begin
    id 22
    name LeftUpLeg
    direction -2.30187e-007 -1 6.00931e-010
    length 16.4045
    axis -3.48766 0.00143442 -0.000524262 xyz
    dof rx ry rz
  end
  begin
    id 23
    name LeftLeg
    direction -2.30187e-007 -1 1.6669e-009
    length 17.5097
    axis 3.68178 -0.00654042 -0.000285133 xyz
    dof rx ry rz
  end
  begin
    id 24
    name LeftFoot
    direction 8.31532e-007 -4.54478e-011 1
    length 6.49508
    axis 1.87233e-006 4.66016e-005 -8.6538e-006 xyz
    dof rx ry rz
  end
  begin
    id 25
    name LeftToes
    direction 0.00818058 -0.00485161 0.999955
    length 3.85048
    axis 1.06247e-005 4.65869e-005 -8.65513e-006 xyz
    dof rx ry rz
  end
:hierarchy
  begin
    root RightUpLegDummy SpineDummy LeftUpLegDummy
    RightUpLegDummy RightUpLeg
    RightUpLeg RightLeg
    RightLeg RightFoot
    RightFoot RightToes
    SpineDummy Spine
    Spine Spine1
    Spine1 HEadDummy LeftShoulder1Dummy RightShoulderDummy
    HEadDummy HEad
    LeftShoulder1Dummy LeftShoulder1
    LeftShoulder1 LeftArm
    LeftArm LeftForeArm
    LeftForeArm LeftHand
    RightShoulderDummy RightShoulder
    RightShoulder RightArm
    RightArm RightForeArm
    RightForeArm RightHand
    LeftUpLegDummy LeftUpLeg
    LeftUpLeg LeftLeg
    LeftLeg LeftFoot
    LeftFoot LeftToes
  end

:SAMPLES-PER-SECOND 30
:FULLY-SPECIFIED
:DEGREES
89
root  40.5602 33.5379 -66.1663 0.776692 -49.1862 -0.109169
RightUpLeg  -8.34839 0.952834 0.878686
RightLeg  16.7146 -5.80271 -1.33948
RightFoot  0.384401 0.00770975 -0.075021
RightToes  -24.4888 -0.109893 -0.212932
Spine  5.16402 -2.15635 0.0978115
Spine1  9.53646 -4.16625 -0.451589
HEad  12.0318 1.82081 6.98177
LeftShoulder1  0 -2.42657e-020 -4.95415e-022
LeftArm  14.9596 4.8053 -79.3638
LeftForeArm  48.7986 -70.4431 -29.9656
LeftHand  -0.0722267 -0.4914 12.5559
RightShoulder  0 2.42657e-020 1.07489e-018
RightArm  11.7516 -16.6846 66.8405
RightForeArm  152.229 76.8699 129.953
RightHand  -4.90658 14.1618 -37.7058
LeftUpLeg  -6.83261 5.49036 3.01196
LeftLeg  18.2198 -1.12207 -0.293103
LeftFoot  -1.55942 0.010387 -0.0277518
LeftToes  -13.6687 8.72033e-007 1.17809e-007
90
root  40.5379 33.537 -66.1481 0.766575 -49.1362 -0.113958
RightUpLeg  -8.29779 0.922131 0.885072
RightLeg  16.7496 -5.82191 -1.34765
RightFoot  0.328029 0.00682825 -0.0687621
RightToes  -24.4924 -0.109542 -0.212607
Spine  5.15628 -2.13317 0.103357
Spine1  9.52161 -4.11946 -0.439216
HEad  12.0756 1.85767 6.89331
LeftShoulder1  0 -2.42657e-020 -4.95415e-022
LeftArm  14.9388 4.84699 -79.3626
LeftForeArm  48.898 -70.4858 -30.0441
LeftHand  -0.0714339 -0.506808 12.5602
RightShoulder  0 2.42657e-020 1.07489e-018
RightArm  11.8488 -16.6259 66.7452
RightForeArm  152.25 76.8467 130.076
RightHand  -4.91231 14.1686 -37.7298
LeftUpLeg  -6.7849 5.48453 3.02494
LeftLeg  18.2301 -1.17888 -0.30806
LeftFoot  -1.59394 0.0105566 -0.0273727
LeftToes  -13.693 8.72033e-007 1.17809e-007
91
root  40.5053 33.5417 -66.113 0.465033 -49.0885 -0.0351764
RightUpLeg  -7.94056 0.935 0.83246
RightLeg  16.7022 -5.87761 -1.35536
RightFoot  0.250444 0.00582277 -0.0608017
RightToes  -24.4348 -0.109174 -0.212257
Spine  5.24014 -2.10645 0.0796454
Spine1  9.67798 -4.06109 -0.492302
HEad  12.0838 1.91084 6.91761
LeftShoulder1  0 -2.42657e-020 -4.95415e-022
LeftArm  14.9125 4.7831 -79.3524
LeftForeArm  48.8076 -70.4404 -29.9605
LeftHand  -0.0659255 -0.499737 12.6802
RightShoulder  0 2.42657e-020 1.07489e-018
RightArm  11.8782 -16.5045 66.7239
RightForeArm  152.003 76.8994 129.793
RightHand  -4.9344 14.1945 -37.8236
LeftUpLeg  -6.38831 5.14544 3.01548
LeftLeg  18.1271 -1.20442 -0.312362
LeftFoot  -1.5184 0.0107183 -0.0271359
LeftToes  -13.9807 8.72033e-007 1.17809e-007
92
root  40.4883 33.5395 -66.0977 0.494103 -49.0512 -0.0668216
RightUpLeg  -7.92687 0.959705 0.856393
RightLeg  16.754 -5.949 -1.37741
RightFoot  0.207601 0.00502978 -0.0563577
RightToes  -24.4372 -0.108789 -0.211884
Spine  5.23504 -2.09467 0.0869396
Spine1  9.66885 -4.03701 -0.477737
HEad  12.1076 1.99411 6.94359
LeftShoulder1  0 -2.42657e-020 -4.95415e-022
LeftArm  14.8336 4.81235 -79.3805
LeftForeArm  48.8552 -70.4725 -30.0197
LeftHand  -0.0644733 -0.562303 12.7002
RightShoulder  0 2.42657e-020 1.07489e-018
RightArm  11.9636 -16.4231 66.6806
RightForeArm  151.81 76.9196 129.684
RightHand  -4.91815 14.1523 -37.8132
LeftUpLeg  -6.35494 5.42626 3.01401
LeftLeg  18.0605 -1.20605 -0.311282
LeftFoot  -1.61477 0.0108719 -0.0270328
LeftToes  -13.6502 8.72033e-007 1.17809e-007
93
root  40.4721 33.539 -66.0806 0.504751 -49.0236 -0.076426
RightUpLeg  -7.91744 0.944297 0.860364
RightLeg  16.8042 -5.9572 -1.38482
RightFoot  0.173754 0.00425606 -0.0524235
RightToes  -24.4224 -0.108387 -0.211487
Spine  5.22693 -2.0803 0.0921553
Spine1  9.65367 -4.00877 -0.465103
HEad  12.136 1.99812 6.93577
LeftShoulder1  0 -2.42657e-020 -4.95415e-022
LeftArm  14.7712 4.85788 -79.3998
LeftForeArm  48.9218 -70.5186 -30.105
LeftHand  -0.0614689 -0.563519 12.7467
RightShoulder  0 2.42657e-020 1.07489e-018
RightArm  12.027 -16.3661 66.6391
RightForeArm  151.671 76.9238 129.661
RightHand  -4.91872 14.1588 -37.8007
LeftUpLeg  -6.32501 5.41109 3.01729
LeftLeg  18.0608 -1.20407 -0.310779
LeftFoot  -1.6427 0.0110171 -0.0270548
LeftToes  -13.6684 8.72033e-007 1.17809e-007
94
root  40.4615 33.5394 -66.061 0.506967 -48.9861 -0.0711179
RightUpLeg  -7.8859 0.869788 0.840224
RightLeg  16.8078 -5.92457 -1.37766
RightFoot  0.142374 0.00343306 -0.0479279
RightToes  -24.3878 -0.10797 -0.211067
Spine  5.21864 -2.06655 0.10122
Spine1  9.63623 -3.98294 -0.444356
HEad  12.1365 1.93617 6.9098
LeftShoulder1  0 -2.42657e-020 -4.95415e-022
LeftArm  14.8079 4.87415 -79.3919
LeftForeArm  48.9001 -70.5169 -30.1018
LeftHand  -0.0587567 -0.48806 12.7694
RightShoulder  0 2.42657e-020 1.07489e-018
RightArm  12.0669 -16.3522 66.5915
RightForeArm  151.628 76.9193 129.677
RightHand  -4.92375 14.1801 -37.7833
LeftUpLeg  -6.31142 5.08694 3.02573
LeftLeg  18.1296 -1.22731 -0.318313
LeftFoot  -1.59999 0.0111537 -0.0271934
LeftToes  -13.9672 8.72033e-007 1.17809e-007
95
root  40.4499 33.5408 -66.0418 0.532226 -48.9358 -0.0886147
RightUpLeg  -7.83993 0.831894 0.841164
RightLeg  16.779 -5.93761 -1.37752
RightFoot  0.104356 0.00265134 -0.0442707
RightToes  -24.3025 -0.107538 -0.210626
Spine  5.20895 -2.0582 0.111266
Spine1  9.61828 -3.96712 -0.422348
HEad  12.107 1.91499 6.94852
LeftShoulder1  0 -2.42657e-020 -4.95415e-022
LeftArm  14.8648 4.89604 -79.3495
LeftForeArm  48.853 -70.5254 -30.1113
LeftHand  -0.0604807 -0.534643 12.7021
RightShoulder  0 2.42657e-020 1.07489e-018
RightArm  12.1266 -16.3804 66.5531
RightForeArm  151.726 76.9119 129.725
RightHand  -4.935 14.1997 -37.8146
LeftUpLeg  -6.28913 5.37739 3.00617
LeftLeg  18.0616 -1.25245 -0.323199
LeftFoot  -1.68803 0.0112814 -0.02744
LeftToes  -13.5315 8.72033e-007 1.17809e-007
